<!-- Generator: Adobe Illustrator 23.0.3, SVG Export Plug-In . SVG Version: 6.00 Build 0)  --><svg version="1.1" id="Layer_1" xmlns="http://www.w3.org/2000/svg" xmlns:xlink="http://www.w3.org/1999/xlink" x="0px" y="0px" viewBox="0 0 612 792" style="enable-background:new 0 0 612 792;" xml:space="preserve" height="44" width="34"><style type="text/css">	.st0{fill-rule:evenodd;clip-rule:evenodd;fill:#FFFFFF;}	.st1{fill-rule:evenodd;clip-rule:evenodd;fill:#05011A;}	.st2{fill-rule:evenodd;clip-rule:evenodd;fill:#1E9C63;}	.st3{fill-rule:evenodd;clip-rule:evenodd;fill:#3FED85;}	.st4{fill-rule:evenodd;clip-rule:evenodd;fill:#015345;}	.st5{fill-rule:evenodd;clip-rule:evenodd;fill:#F1F1F1;}	.st6{fill-rule:evenodd;clip-rule:evenodd;fill:#CDCDCD;}</style><g>	<path class="st0" d="M70.7,444.8c-1-2.2-1.6-4.7-1.6-7.2c-1.6-4.3-1.4-8.9,0.5-13.1c2.9-6.4,9-10.4,16-10.4c1.4,0,2.7,0,4.1,0   c7.5,0,14.9,0,22.4,0c0.7,0,1.3,0,2,0.1c0.7-0.1,1.3-0.1,2-0.1c1.4,0,2.7,0,4.1,0c7.5,0,15.1,0,22.6,0c3.1,0,6.1,0.8,8.8,2.3   c2.6-1.5,5.4-2.2,8.5-2.2c3,0,6,0,8.9,0c3,0,5.8,0.7,8.4,2.1c2.6-1.4,5.5-2.1,8.5-2.1c1,0,2,0,3,0c5.4,0,10.9,0,16.3,0   c4.8,0,9.1,1.8,12.3,5c3.2-3.2,7.6-5.1,12.4-5.1c8.4,0,16.9,0,25.3,0c3.7,0,7.1,1.1,10.1,3.2c0.3,0.2,0.6,0.4,0.9,0.6   c3.1-2.5,6.9-3.9,11-3.9c3.8,0,7.6,0,11.4,0c1,0,1.9,0.1,2.9,0.2c1-0.2,2-0.2,3-0.2c1,0,2,0,3,0c5.5,0,11,0,16.5,0   c0.5,0,1,0,1.4,0.1c0.5,0,1-0.1,1.4-0.1c1,0,2,0,3,0c5.5,0,10.9,0,16.4,0c1,0,2,0.1,2.9,0.2c1-0.2,2-0.2,2.9-0.2   c3.8,0,7.6,0,11.4,0c1,0,2,0.1,2.9,0.2c1-0.2,2-0.2,3-0.2c13.9,0,27.7,0,41.6,0c0.6,0,1.2,0,1.8,0.1c0.6-0.1,1.2-0.1,1.8-0.1   c8.4,0,16.8,0,25.2,0c3.4,0,6.5,0.9,9.4,2.7c2.8-1.8,6-2.7,9.4-2.7c6.4,0,12.9,0,19.3,0c0.2,0,0.3,0,0.5,0c0.2,0,0.3,0,0.5,0   c1.4,0,2.8,0,4.1,0c7.5,0,15,0,22.6,0c0.7,0,1.3,0,2,0.1c0.7-0.1,1.3-0.1,2-0.1c1.4,0,2.7,0,4.1,0c7.5,0,15,0,22.5,0   c7.1,0,13.2,4,16.1,10.5c1.8,4.2,2,8.8,0.5,13.1c0,2.5-0.6,5-1.6,7.2c1.5,14.7,3.1,29.4,4.6,44.1c1.6,15.3,3.2,30.7,4.8,46   c5.7,5.3,6.7,13.9,4.6,21.1c-2.4,8.1-8.7,14.6-17.6,14.6c-1.5,0-2.9,0-4.4,0c-6.4,0-12.8,0-19.3,0c-1.4,0-2.9,0-4.3,0   c-0.3,0-0.5,0-0.8,0h-2.6c-0.3,0-0.5,0-0.8,0c-1.5,0-3,0-4.5,0c-6.4,0-12.8,0-19.3,0c-1.4,0-2.9,0-4.3,0c-0.3,0-0.5,0-0.8,0h-3.9   c-1.4,0-2.7,0-4.1,0c-7,0-13.1-4.1-15.7-10.6c-2-4.9-1.2-13.6,1.4-19.2c-1.7,0-3.4,0-5.2,0c-1,0-2,0-2.9,0c-3.8,0-7.3-1.2-10.2-3.4   c-2.1,1-4.4,1.6-6.7,1.7c-2.3,1.1-4.8,1.6-7.3,1.6c-1,0-2,0-2.9,0c-4.4,0-8.7,0-13.1,0c-1,0-2,0-2.9,0c-3.3,0-6.5-0.9-9.2-2.7   c-0.8,0.3-1.6,0.5-2.4,0.7c-2.5,1.3-5.1,2-8,2c-7.3,0-14.6,0-22,0c-1,0-2,0-2.9,0c-4.4,0-8.4-1.6-11.4-4.4   c-3.1,2.8-7.1,4.4-11.4,4.4c-1,0-2,0-2.9,0c-4.4,0-8.8,0-13.1,0c-1,0-2,0-2.9,0c-0.5,0-0.9,0-1.4-0.1c-0.5,0-0.9,0.1-1.4,0.1   c-1,0-2,0-3.1,0c-4.4,0-8.7,0-13.1,0c-1,0-2,0-2.9,0c-6.4,0-12.1-3.4-15-9.1c-0.5-0.8-1-1.6-1.4-2.4c-0.2,0.2-0.5,0.3-0.8,0.4   c-5.4,3-10.8,5.9-16.2,8.9c-2.6,1.4-5.2,2.1-8.2,2.1c-7.3,0-14.6,0-22,0c-0.4,0-0.8,0-1.2,0c-0.4,0-0.8,0-1.2,0c-0.5,0-1.1,0-1.6,0   c-12.1,0-24.2,0-36.4,0c-1,0-2,0-2.9,0c-2.5,0-5-0.5-7.3-1.6c-0.6,0-1.1-0.1-1.7-0.2c-2.4,1.2-4.8,1.8-7.6,1.8c-2.9,0-5.9,0-8.8,0   c-1.9,0-3.7-0.3-5.4-0.9c3,5.6,3.9,14.9,1.8,20.2c-2.6,6.5-8.7,10.5-15.6,10.5c-1.4,0-2.8,0-4.3,0h-3.7c-0.3,0-0.5,0-0.8,0   c-1.5,0-3,0-4.5,0c-6.4,0-12.8,0-19.3,0c-1.4,0-2.9,0-4.3,0c-0.3,0-0.5,0-0.8,0h-2.6c-0.3,0-0.5,0-0.8,0c-1.4,0-2.9,0-4.3,0   c-6.4,0-12.8,0-19.3,0c-1.4,0-2.9,0-4.3,0c-7.4,0-13.9-4.5-16.4-11.5c-2.9-7.8-3-18.1,3.4-24.2c1.6-15.4,3.2-30.7,4.8-46.1   C67.7,474.3,69.2,459.6,70.7,444.8z" />	<g>		<path class="st0" d="M193.9,138.6c25.5-18.5,54.1-32.4,84.5-41.7l46.3-14.1l-40.3,26.8c-1,0.7-2.1,1.4-3.1,2.1    c2.3-0.7,4.5-1.3,6.8-1.9c40.4-11,83.1-14.5,124.5-7.7c35,5.7,67.9,21.2,85,53.7c6.2,11.8,11.1,29.1,10.3,42.7l-2.7,44.7    L494,199.8c-2.1-7.8-7.9-17.4-12.9-23.5c-2.5-3-5.2-5.7-8-8.2c6,7.6,10.5,16.3,12.7,25.9l0,0.2l0,0.2c2.3,13.1,3.3,29.9,1.6,43.6    c3.5,3.8,6.9,8.5,9.4,12.5c7.8,12.3,12.6,26.1,13.7,40.6l0,0.3l0,0.3c-0.1,10.2-1,23.5-3.4,34.3c5.2,3.4,10.4,7.7,14.6,11.7    c11.8,11.3,20.8,25.4,23,41.9c2.2,16.4-2.8,32.8-11,46.8c-3.8,6.6-9.2,14.2-14.6,19.7l-24.8,25.1l13.2-32.7    c5-12.3,13.4-39.9,8.9-52.7c-1.7-4.9-4.6-8.8-9.8-10.2c-0.2-0.1-0.5-0.1-0.7-0.2l1.2,38.1l-0.1,0.5c-1.2,10-3.9,21.3-6.9,30.9    c-5.7,18.2-14.6,37.3-28.3,51c-4.9,21.9-14.8,56.1-27.4,73.3l-0.4,0.5l-0.5,0.4c-11.4,10.9-27.1,23.6-41.3,31    c-2.9,3.3-5.8,7.7-7.9,11.3c-6.1,10.4-10.2,21.9-12.1,33.8c0.2,4,2.2,8.9,4.4,12c6.7,9.8,19,12.4,30.2,12.5l17.7,0.2l-13,12    c-4.1,3.8-9.1,7.4-13.6,10.4c-11.1,7.5-23.3,13.6-35.9,18.1c-30.7,11-61.7,11.3-91.4,2l-0.6,2.8l-6.3-0.7    c-7.2-0.8-15.7-4.1-21.7-7.7c-13.6-8.2-21.3-20.8-22.9-36.2c-5.7-3.6-11.6-8.4-16.3-12.7c-12.9-11.8-23.5-26.3-29.4-42.9    c-3-8.3-11-31.7-7.9-44.2c-2.3-4.4-4.2-9.5-5.5-13.8c-4.5-14.2-6.1-29.4-5.1-44.3c0.5-7.1,1.8-27.9,8.4-37.9    c-2.4-5.8-4.4-12.4-5.7-18.6c-17.3,0.2-37-4-47.2-18.7c-7.6-11-10.5-25.3-11.2-38.4c-0.4-6.7-0.3-14.3,0.6-21l0.9-6.3l12.7,0.4    l0.5,6.3c0.6,8.1,2.9,15.4,6.9,21.9l13.2,6.3c6.9,3.3,14.6,4.8,22.3,4.7l-3-6.3c-5-2.8-10.2-6.6-14.5-10.1    c-9.6-8.1-18.2-18.8-20.6-31.5c-2.7-11.5-2.6-26.3-0.6-38.4c-5.6-4.9-11.1-11.5-14.8-17.2c-11.1-17.1-15-36.5-11.4-56.6    c0.5-8.2,2.3-17.4,4.2-25.4c4.6-19.8,12.1-39.2,22.1-56.9c35-62,107.9-100.9,180.5-98.5c-33.5,9.7-53,22.2-79.3,39.5    C216.3,119.3,204.6,128.5,193.9,138.6z" />		<path class="st1" d="M108.5,253.3c0,0,8.7-152,177-177.5c0,0-109.4,31.4-153,140.4c0,0,39.5-79.3,148-112.5    c0,0-31.2,20.8-42.2,32.1c0,0,79.5-42,173.2-26.8c93.7,15.2,89.4,89,89.4,89s-13.2-50.4-72.9-54.5c0,0,42.6,16.5,50.9,52.1    c0,0,4.4,25.4,1,44.9c0,0,21.2,19.6,23.6,51.2c0,0-0.3,24-4.5,37.7c0,0,34.4,18.7,38.7,51.2c4.3,32.4-23.6,60.6-23.6,60.6    s15.7-38.6,9.1-57.6c-6.6-19.1-24.5-15.2-24.5-15.2l1.4,44.9c0,0-6,52.2-34.6,79.1c0,0-10.9,51.2-26.7,72.8    c0,0-21.9,20.9-40.8,30.4c0,0-18.1,18.9-22.8,50.4c0,0,0.2,31.6,41.6,32.1c0,0-71.5,66-161.2,17.5c0,0,7.6,9.3,19,13.3    c0,0-37.3-4.3-38.7-41c0,0-33.2-18.5-45.9-53.8c-12.6-35.3-6.8-42.4-6.8-42.4s-13.7-21.8-11.4-57.1c2.3-35.3,9.7-36.8,9.7-36.8    s-6-12.5-8.3-27.5c-10.2,0.7-36,0.8-47.1-15.4c-14.1-20.4-9.4-54.4-9.4-54.4c3,38.2,37.8,48.1,37.8,48.1    c-10.2-4.6-13.6-14.1-13.6-14.1c14.8,7,28.8,5.7,35.9,4.3l-8.1-17.3c0,0-29.4-15.1-33.5-38c0,0-4.4-18.7,0.3-39.8    C135.4,323.4,100.4,298.4,108.5,253.3z" />		<path class="st2" d="M124.6,286.8c0,0-0.9-96.6,119.2-140.2c120.1-43.6,190.3-25.9,220.3-3.7c0,0-51.2-22-114.1-11.3    c0,0,67.1,0.1,98.8,38.5c31.6,38.4,23.7,94-37.5,131.5c0,0,19.4-6.2,34.1-18.1c0,0-7.1,14.4-26.4,33.1c0,0-11,9.2-13.3,22.4    c0,0-24.2,32.5-41.3,38.6c0,0-4.3-18,6.9-37.6c0,0,10.1-13.5,24-19.6c0,0-27.9-5.7-44.1,0.4c0,0-39,28-59.7,34.4    c0,0,7.3-0.5,16.4-3.8c0,0-21,21.3-53.1,24.2c0,0,4.7-1.8,8.6-4.4c0,0-8,2.2-15.1-1.3c-7-3.4-7.8-12.1-6.3-17.6    c0,0,3.2-8.9,15.2-17.1c0,0-12.8,4.9-28.4,21.4c0,0-20.5,15.3-32.5,13c-12-2.3-14.5-5.5-14.5-5.5s-4-21.5,15.3-31    c0,0-28,2.7-29.5,30.5c0,0-6.1,2.1-10.8-5.2c-4.7-7.2-9.7-11.7-7.7-19.8c2-8.1,5.3-10.4,5.3-10.4s10.9,4.2,22.1,5.8    C176.4,334.2,143,316.7,124.6,286.8L124.6,286.8z M209.5,180.4c0,0-51.3,22.4-58,72.7c-5.9,44,63.8,100.3,175.8,49.1    c11.4-2.6,18.9-0.5,18.9-0.5c11.1,4.7,25.5,4.5,25.5,4.5c-7.1-2.8-14.4-11.3-18.8-17.1c7.9-4.5,16-9.6,24.3-15.2    c0,0,60.8-44.8,23.4-95.4c0,0,12,40.7-14.6,60.7c0,0,19.5-55.6-49.8-62.3c-69.3-6.8-139.3,33.9-156.5,64    C179.5,240.7,177.7,214.9,209.5,180.4z" />		<path class="st3" d="M124.6,286.8c0,0-0.4-49.1,42.9-93.1c-1.2,1.7-31.3,44.7-32.6,86c0,0,4.4,23.9,25.8,44.4    C149.5,316.1,134.8,303.3,124.6,286.8z" />		<path class="st4" d="M228.8,356.6L228.8,356.6c-0.1,0.1-20.6,15.4-32.6,13.1c-12-2.3-14.5-5.5-14.5-5.5s-3.9-20.7,14.4-30.5l1-0.5    c0,0-8.8,14.5-4.9,24.4C195.6,366.2,218.7,361.3,228.8,356.6L228.8,356.6z M192.6,334.1c-18-0.2-27.4,15.3-27.4,15.3    s-2.4,4.1-6.7-2.1s-4.2-19-4.2-19s-3.3,2.3-5.3,10.4c-2,8.1,3,12.6,7.7,19.8c4.7,7.2,10.8,5.2,10.8,5.2    C168.7,343,184.6,336.2,192.6,334.1z" />		<path class="st4" d="M209.4,180.4c5.2-5.7,42-43.1,125.6-41.6c42.6,0.7,60,20.4,66.5,41c-0.3-0.5-0.6-0.9-1-1.4    c0,0,12,40.7-14.6,60.7c0,0,19.5-55.6-49.8-62.3c-69.3-6.8-139.3,33.9-156.5,64C179.5,240.7,177.7,214.9,209.4,180.4L209.4,180.4z    " />		<path class="st4" d="M405.6,141.7L405.6,141.7l0.4,0.2c15.7,5.7,31.5,14.5,42.8,28.2c31.6,38.4,23.7,94-37.5,131.5    c0,0,19.4-6.2,34.1-18.1c-10.4,15-50.2,37-50.2,37s-27.9-5.7-44.1,0.4c0,0-39,28-59.7,34.4c0,0,7.3-0.5,16.4-3.8    c0,0-21,21.3-53.1,24.2c0,0,4.7-1.8,8.6-4.4c0,0-8,2.2-15.1-1.3c-7-3.4-7.8-12.1-6.3-17.6c0,0,3.2-8.9,15.2-17.1    c0,0-3.3,1.3-8.7,4.7c9.7-9.1,22.5-17.1,29.9-21.3c5.6-1.2,11.3-2.7,17.2-4.4c-30.6,17.5-52.2,46.7-39.9,46.1    c14-0.7,75.8-39.8,82.8-45.5c7.1-5.7,11.5-5.9,11.5-5.9c17.6,4.8,30.3,0.6,30.3,0.6c-2.4-0.7-5.9-1.9-9.7-3.4c0.6,0,1,0,1,0    c-7.1-2.8-14.4-11.3-18.8-17.1c7.9-4.5,16-9.6,24.3-15.2c0,0,0.5-0.4,1.3-1c30.9-18,64.6-47,64.6-73.2    C443,159.1,405.8,141.8,405.6,141.7z" />		<path class="st4" d="M201.7,246.4c0,0,24.1-28.8,72.7-42.2c48.7-13.4,74.7,2.5,74.7,2.5s-35-5.3-67.7,6.4c0,0,16.5-3.4,34.4,5    c0,0-66.3-3.9-114.1,40.8C201.7,259,196.7,252.3,201.7,246.4z" />		<path class="st4" d="M196.3,273.7c0,0,40.8,41.7,111.6,14.8c0,0-26.3,24.9-72.5,20.4c0,0,13.8,5.8,31.1,5.3c0,0-37,13.5-58.5-2.5    c-21.5-16-23.2-42.5-23.2-42.5s5.7,10.9,17.1,19.4C202,288.6,196,283.5,196.3,273.7z" />		<path class="st2" d="M230.5,396.5c0,0,17,22.1,50.6,20.7c0,0,16.2-8.1,25.5-10.1h17.4l-7.2,6.2l14.2-2.6c0,0,8.4-8.8,24.6-17.5    c16.2-8.8,42.3-16.7,42.3-16.7l18.8-25.6c0,0-8.3,19-9.9,26.1c0,0-3.1,13.4-9.1,21.6L376,421.2l26.3-20.3l51.3-88.1l-2.8-11.6    l10.2-18.7c0,0,14.9,26.6,14.9,58.4c0,31.8-54,95-74.5,120.3c0,0-76.4,33.9-128.8,44.7l7.7,3.8l5,0.9l-17.6,2.8    c0,0-36.3-14-68.4-0.1l8.5-8.1c0,0-10.3-2.9-12.1-12.1c-1.8-9.2,5.3-14.6,5.3-14.6s-7.9-3.9-13.8,0.8c0,0,8.1-16,36.6,0.8    c28.5,16.8,59.7,9.4,59.7,9.4l-1,3.1c0,0,17.7-7.6,24.4-9.8c0,0,22.9-0.2,34.6-8.1c11.7-7.9,18.4-27.4,21.2-37.5    c2.8-10.1-2.4-23.4-6.6-24.6c0,0-7.4,2.2-10.5,5.5c0,0-23.5,2.9-31.4,7.9c0,0-19.1-6.8-48.6,1.5c-29.5,8.3-51.6-7.4-57.5-12.9    c0,0,10.9,1.7,21.8-10.7L230.5,396.5z" />		<path class="st4" d="M230.5,396.5c0,0,17,22.1,50.6,20.7c0,0,16.2-8.1,25.5-10.1h17.4l-7.2,6.2c-15.4-1.1-34.4,6.1-34.4,6.1    c-31,3.1-58.1-10.2-58.1-10.2h0c1.8-1.4,3.7-3.1,5.5-5.2L230.5,396.5L230.5,396.5z M389.4,379.1c5-1.7,8.3-2.7,8.3-2.7l18.8-25.6    c0,0-8.3,19-9.9,26.1c0,0-3.1,13.4-9.1,21.6l-20.7,21.6l-13.5,12.1c0-0.7,0-1.5,0-2.2l27-41.1L389.4,379.1L389.4,379.1z     M446.4,325c1.8,4.1,3.8,10.7,4.6,21.1c0,0-22.3,53.2-53.9,93.3c0,0-32.5,22.1-41.2,16.4c-3.5,7.5-8.3,14.8-14.4,19    c-7.5,5.1-19.6,7-27.3,7.7c-6.2,5.9-21.7,19.1-41.6,23.5c52.4-10.8,128.8-44.7,128.8-44.7c20.5-25.3,74.5-88.4,74.5-120.3    c0-31.8-14.9-58.4-14.9-58.4l-10.2,18.7l2.8,11.6L446.4,325L446.4,325z M196.1,495.1c-0.2-0.6-0.4-1.2-0.5-1.9    c-1.8-9.2,5.3-14.6,5.3-14.6s-7.9-3.9-13.8,0.8c0,0,8.1-16,36.6,0.8c28.5,16.8,59.7,9.4,59.7,9.4c-39.5,11.5-69.7-4.6-69.7-4.6    C204,485.2,198.6,491.1,196.1,495.1z" />		<path class="st2" d="M468,401.6c0,0,4.5,46.1-16.6,76.8c0,0-22.7,28.4-73,55.1l1.1-7.1c0,0,9.5-17.5,11.9-28.4    c0,0-17.5,27.9-43.3,48.1c0,0-36.5,18.5-59.1,24.9c0,0-66.6-4.2-87.4-31c0,0,40.9,10.6,81.8-7.8c0,0-22.2-0.7-40-13.9    c0,0,23.4,4.6,37.8,3c0,0,56-6.6,122.9-48.6C404.2,472.7,449.3,434.3,468,401.6z" />		<path class="st4" d="M468,401.6c0,0,4.5,46.1-16.6,76.8c0,0-22.7,28.4-73,55.1l1.1-7.1c0,0,9.5-17.5,11.9-28.4    c0,0-17.5,27.9-43.3,48.1c0,0-36.5,18.5-59.1,24.9c0,0-10.6-0.7-24.7-3.2c88.1-28.1,135.4-82,135.4-82c0.1,14.2-2.6,24.2-2.6,24.2    c21.6-17.1,39.5-36.7,39.5-36.7c6.8-15.5,9.7-33,10.9-43.8C455.5,420.4,462.8,410.8,468,401.6z" />		<path class="st3" d="M283.5,532.2c0,0-22.2-0.7-40-13.9c0,0,23.4,4.6,37.8,3c0,0,55.3-6.5,121.7-47.8l0,0    C351.5,519.7,283.5,532.2,283.5,532.2z" />		<path class="st2" d="M438.8,512.2c0,0-65.2,42.9-87.7,61.5l5-12.6c0,0-32,17.2-67.2,27.4c0,0-56.5,1-87.2-17.5c0,0,5.6,27.9,20,39    c0,0,43.1,13.4,86.6,4.8c0,0-23.5,19.3-90.1,8.4c0,0,7.7,19.7,33,33.4c0,0,28.1,2.7,49.7-6.5c0,0-13,10.3-21.3,12.6    c0,0,31.6-4.7,67.7-33l18.9-19.8l-41.2,6.2c0,0,59.2-24,78.1-37C403.3,579,430.9,554.2,438.8,512.2z" />		<path class="st3" d="M267.8,626.2c-12.9,0.9-29.2,0.4-49.6-3c0,0,1.2,3.2,4.3,7.8C228.1,631.5,244.3,631.9,267.8,626.2z" />		<path class="st4" d="M227.2,637.2c5.2,6.2,12.9,13.4,24.1,19.4c0,0,28.1,2.7,49.7-6.5c0,0-13,10.3-21.3,12.6c0,0,31.6-4.7,67.7-33    l18.9-19.8l-21.6,3.2c-5.9,5-18,14.8-28.8,19.4C316.1,632.5,277.4,648.8,227.2,637.2z" />		<path class="st4" d="M438.8,512.2c0,0-3.9,2.6-10.2,6.8c-6.8,10.3-23.5,34-41,45.7c0,0-55.9,32.5-84.8,40.4    c-28.9,7.9-65.5,8.7-65.5,8.7c16.4,3.2,43.7,6.5,71.1,1.1c0,0-0.3,0.2-0.8,0.6h0c0,0,7.5,0.8,40.4-9c18.8-8.1,44.2-19.7,55.4-27.5    C403.3,579,430.9,554.2,438.8,512.2z" />		<path class="st3" d="M307.6,582.5c-6,2.2-12.3,4.2-18.7,6.1c0,0-56.5,1-87.2-17.5c0,0,1.1,5.6,3.7,12.8c4.6,1.6,12.7,4.2,26.4,7.4    c24.5,5.8,55.8,2.8,55.8,2.8L307.6,582.5z" />		<path class="st2" d="M361.8,639c0,0-11.9,42.9,23.5,49c0,0-78,24.2-133.9-14.6c0,0,49.4,13.1,88.4,11.7c0,0-34.3-5.1-54.2-10.7    C285.6,674.4,342.4,663.3,361.8,639z" />		<path class="st4" d="M361.8,639c0,0-11.9,42.9,23.5,49c0,0-78,24.2-133.9-14.6c0,0,49.4,13.1,88.4,11.7c0,0-7.1-1.1-16.8-2.7    c14.8-0.6,23.6-3.6,23.6-3.6c-3.2-7.5-4.8-17.4-5.6-23.7C349.3,650.6,356.8,645.2,361.8,639z" />		<path class="st0" d="M284.8,389c0,0,34.1-27,58-28.9c0,0,0.2,10.8-18.4,27.2C324.4,387.2,307.5,391.7,284.8,389z" />		<path class="st0" d="M181.8,380.1c0,0,13.1,7,32.2,7.9c0,0,0.1,6.8-1.8,11.9c0,0-8.6,3.8-15.4,1.1    C190,398.3,182.8,385.7,181.8,380.1z" />		<path class="st3" d="M330.9,410.7c0,0,8.4-8.8,24.6-17.5c16.2-8.8,42.3-16.7,42.3-16.7l18.8-25.6c0,0-8.3,19-9.9,26.1    c0,0-0.4,1.9-1.3,4.6c-6.4,7.8-12.1,8-12.1,8C369.3,393,330.9,410.7,330.9,410.7z" />		<path class="st3" d="M361.8,639c0,0-2.2,7.8-1.9,17.2c-8.8,4-39.4,16.7-67.7,16.7C307.8,669.1,346.5,658.1,361.8,639z" />		<path class="st5" d="M356.1,424.9c0,0-0.1,10-2,14.3c0,0-4.4,3.4-9.1,9.4c-4.8,6-13.7,3.3-20.4-5c0,0-4.8,7.7-10.3,11.5    c0,0-2.2-0.6-3-1.9c0,0-13.4,5-24.3,5.9c0,0,14.8,2.3,28.8,1.5c0,0,5.3-6.9,10.4-7.1c5.1-0.1,14.8,6.7,14.8,6.7    s-9.1,12.8-15.4,16.1c-6.3,3.3-38.3-5.8-38.3-5.8l-19.3-0.3c0,0-8.9,3.6-13.1,4.7c-4.3,1.1-26.1-2.9-26.1-2.9s-14.5-9.8-20.6-21.7    c0,0,18.2,3.8,30.5,2.8l-23.1-9.7l-6.7,3l5.3-11.1l28.5,0.1l3.3,3.3l54.6-6.1c0,0,0.5,8.6-5,15.1c0,0,7.2-4.6,10.2-15.5l26.1-6.6    l6.9-0.5l-0.7,7.2l-4.6,9.2c0,0,6.8-4.2,9.9-9.1l2.2-8.4C345.6,424,351.7,422.4,356.1,424.9z" />		<path class="st6" d="M356.1,424.9c0,0-0.1,10-2,14.3c0,0-4.4,3.4-9.1,9.4c-2.5,3.2-6.2,3.9-10,2.7c2.6-2.9,6.7-14,8.3-18.3    l0.3-0.4l0.4-1.4l0,0v0l1.8-7C345.6,424,351.7,422.4,356.1,424.9L356.1,424.9z M327.3,446.4c-0.9-0.9-1.8-1.9-2.7-2.9    c0,0-4.8,7.7-10.3,11.5c0,0-2.2-0.6-3-1.9c0,0-13.4,5-24.3,5.9l20.2-8.7c0,0,9.6-13,12.5-15C322.6,433.3,326,441.1,327.3,446.4    L327.3,446.4z M300.1,460.3l9.1,2.8c-1.8,1.5-4.6,7-6.5,11.1c3,0.7,6.2,1.3,9.1,1.8c2.5-3.5,8.5-7.7,8.5-7.7    c2.4-3.3,6.5-10.7,8.6-14.5c-1-0.3-2-0.5-2.8-0.4c-5.1,0.1-10.4,7.1-10.4,7.1C310.4,460.7,304.9,460.6,300.1,460.3L300.1,460.3z     M237.9,452.7l-22.3-9.3l-6.7,3l5.3-11.1l28.5,0.1l0.9,0.9c4.3,5.1,12.7,13.3,24.2,15.3C267.8,451.7,251.8,453.8,237.9,452.7z" />		<path class="st3" d="M244.1,322.5L244.1,322.5c0,0,26.6,12.6,81.1-13.7c0,0,10.8-5.6,22.1-6.7c-0.4-0.2-0.8-0.3-1.2-0.5    c0,0-7.5-2.1-18.9,0.5C296,316.4,268.1,322.4,244.1,322.5z" />	</g>	<path class="st1" d="M151.4,541.3c2.9,3.5,4.1,12.7,2.4,16.8c-1.8,4.4-5.8,7.1-10.5,7.1c-1.4,0-2.8,0-4.3,0h-3.8   c-0.2,0-0.4,0-0.7,0c-1.5,0-3,0-4.5,0c-6.4,0-12.8,0-19.3,0c-1.4,0-2.9,0-4.3,0c-0.2,0-0.4,0-0.7,0H103c-0.2,0-0.4,0-0.7,0   c-1.4,0-2.9,0-4.3,0c-6.4,0-12.8,0-19.3,0c-1.4,0-2.9,0-4.3,0c-5.1,0-9.5-3.1-11.3-7.9c-2.1-5.9-2.7-14.3,2.4-18.7   c0.9-0.7,1.1-1.7,1.2-2.8c1.6-15.4,3.3-30.9,4.8-46.3c1.6-15.3,3.2-30.6,4.7-45.9c-1.3-2.2-1.9-4.6-1.7-7.1c-1.4-3.1-1.5-6.6,0-9.9   c2-4.5,6.1-7.2,11-7.2c1.4,0,2.7,0,4.1,0c7.5,0,14.9,0,22.4,0c0.7,0,1.3,0.1,2,0.2c0.6-0.1,1.3-0.2,2-0.2c1.4,0,2.7,0,4.1,0   c7.5,0,15.1,0,22.6,0c3.3,0,6.3,1.3,8.5,3.5c0.7-0.4,1.3-0.9,2-1.3c2.1-1.4,4.2-2,6.7-2c3,0,6,0,8.9,0c2.7,0,4.9,0.7,7.1,2.3   c0.5,0.3,0.9,0.7,1.4,1c2.2-2.1,5.1-3.3,8.4-3.3c1,0,2,0,3,0c5.4,0,10.9,0,16.3,0c5.1,0,9.5,3,11.3,7.8c0.2,0.5,0.3,0.9,0.4,1.4   c0.4,0.3,0.8,0.6,1.1,0.9c0.1-0.9,0.4-1.8,0.7-2.6c1.9-4.7,6.2-7.6,11.2-7.6c8.4,0,16.9,0,25.3,0c2.6,0,4.8,0.7,7,2.2   c1.6,1.1,3.2,2.3,4.8,3.4c2.1-3.4,5.9-5.6,10.2-5.6c3.8,0,7.6,0,11.4,0c1,0,2,0.1,2.9,0.4c0.9-0.2,1.9-0.4,3-0.4c1,0,2,0,3,0   c5.5,0,11,0,16.5,0c0.5,0,1,0,1.4,0.1c0.5-0.1,1-0.1,1.4-0.1c1,0,2,0,3,0c5.5,0,10.9,0,16.4,0c1,0,2,0.1,2.9,0.3   c0.9-0.2,1.9-0.3,2.9-0.3c3.8,0,7.6,0,11.4,0c1,0,2,0.1,2.9,0.4c1-0.2,2-0.4,3-0.4c13.9,0,27.7,0,41.6,0c0.6,0,1.2,0,1.8,0.1   c0.6-0.1,1.2-0.1,1.8-0.1c8.4,0,16.8,0,25.2,0c2.5,0,4.7,0.7,6.7,2.1c1,0.7,2,1.3,3,2c2.2-2.6,5.5-4.1,9.1-4.1c6.4,0,12.9,0,19.3,0   c0.2,0,0.3,0,0.5,0c0.2,0,0.3,0,0.5,0c1.4,0,2.8,0,4.1,0c7.5,0,15,0,22.6,0c0.7,0,1.4,0.1,2,0.2c0.6-0.1,1.3-0.2,2-0.2   c1.4,0,2.7,0,4.1,0c7.5,0,15,0,22.5,0c4.9,0,9.1,2.7,11,7.2c1.4,3.3,1.4,6.8,0,9.9c0.2,2.5-0.4,5-1.7,7.1   c1.6,15.3,3.2,30.5,4.8,45.8c1.6,15.4,3.2,30.8,4.8,46.3c0.1,1.1,0.4,2.1,1.2,2.8c8.5,7.1,3.9,26.6-8.8,26.6c-1.5,0-2.9,0-4.4,0   c-6.4,0-12.8,0-19.3,0c-1.4,0-2.9,0-4.3,0c-0.2,0-0.5,0-0.7,0h-2.8c-0.2,0-0.4,0-0.7,0c-1.5,0-3,0-4.5,0c-6.4,0-12.8,0-19.3,0   c-1.4,0-2.9,0-4.3,0c-0.2,0-0.4,0-0.7,0h-4c-1.4,0-2.7,0-4.1,0c-4.8,0-8.8-2.7-10.6-7.2c-1.6-4-0.4-13.1,2.2-16.5l-0.5-6.1   c-3.5,0-7.1,0-10.6,0c-1,0-2,0-2.9,0c-3.9,0-7.4-1.9-9.5-5.1c-2.2,2.2-5.2,3.5-8.5,3.5h-0.4c-1.7,1-3.7,1.6-5.9,1.6c-1,0-2,0-2.9,0   c-4.4,0-8.7,0-13.1,0c-1,0-2,0-2.9,0c-3.4,0-6.4-1.4-8.5-3.8l0,0c-1.6,1.1-3.2,1.8-5,2c-1.8,1.2-3.8,1.7-6,1.7c-7.3,0-14.6,0-22,0   c-1,0-2,0-2.9,0c-4.8,0-8.9-2.8-10.6-7.3c0-0.1-0.1-0.2-0.1-0.3c-0.9,1.6-2.2,3-3.7,4c-2.1,2.3-5.1,3.6-8.4,3.6c-1,0-2,0-2.9,0   c-4.4,0-8.8,0-13.1,0c-1,0-2,0-2.9,0c-0.5,0-0.9,0-1.4-0.1c-0.5,0.1-0.9,0.1-1.4,0.1c-1,0-2.1,0-3.1,0c-4.4,0-8.7,0-13.1,0   c-1,0-2,0-2.9,0c-4.5,0-8.3-2.4-10.2-6.4c-0.6-0.9-1.1-1.8-1.5-2.8c-0.9-2.3-1.1-4.7-0.6-6.9c-1-3.9,0-8,2.8-11   c0-10.6,0.1-21.3,0.1-31.9c-1.2,0.4-2.5,0.6-3.8,0.5c0,2.4-0.1,4.9-0.1,7.3c-0.2,10.4-0.4,20.7-0.5,31.1c-0.1,4.2-2.2,7.7-5.9,9.8   c-5.4,3-10.8,5.9-16.2,8.9c-1.8,1-3.5,1.4-5.5,1.4c-7.3,0-14.6,0-22,0c-0.4,0-0.8,0-1.2-0.1c-0.4,0-0.8,0.1-1.2,0.1   c-0.5,0-1.1,0-1.6,0c-12.1,0-24.2,0-36.4,0c-1,0-2,0-2.9,0c-2.2,0-4.2-0.6-5.9-1.6h-0.5c-1.2,0-2.4-0.2-3.6-0.5l-0.5,0.3   c-1.9,1.2-3.9,1.8-6.2,1.8c-2.9,0-5.9,0-8.8,0c-2.1,0-4-0.5-5.8-1.6h-1.9c-1,0-1.9-0.1-2.8-0.3L151.4,541.3z" />	<path class="st3" d="M353.4,431.7c0.1,3.6,0.1,7.1,0.2,10.7c-2.6,4-5.2,8-7.9,12c0-4-0.1-8-0.2-12c-1.1,0-2.2,0-3.3,0   c-0.1-3.5-0.1-7.1-0.2-10.7C345.7,431.7,349.5,431.7,353.4,431.7L353.4,431.7z M496.3,487.9c0.7,8.2,1.5,16.4,2.2,24.6   c0.7,8.2,1.4,16.4,2.2,24.6c0.4,4.6,2.3,8.2,5.5,10.8c-1.5,0-3,0-4.5,0c-6.5,0-12.9,0-19.3,0c-1.4,0-2.9,0-4.3,0   c2.7-2.6,3.8-6.2,3.4-10.8c-1.2-15.4-2.5-30.9-3.7-46.3c-1.3-15.4-2.5-30.9-3.8-46.3c0-0.7-0.1-1.3-0.1-2c-0.4-4.7-2-8.3-5-10.9   c1.4,0,2.7,0,4.1,0c7.5,0,15,0,22.6,0c-2.5,2.7-3.7,6.3-3.3,10.9c0.1,0.7,0.1,1.3,0.2,2c0.8,8.6,1.5,17.2,2.3,25.9   c4.8,6.5,9.6,12.9,14.4,19.4c-0.7-7.5-1.4-15.1-2.1-22.6c-0.7-7.5-1.4-15.1-2.1-22.6c-0.1-0.7-0.2-1.3-0.2-2   c-0.4-4.6-2.1-8.2-5.1-10.9c1.3,0,2.7,0,4.1,0c7.5,0,15,0,22.5,0c-2.5,2.7-3.5,6.3-3,10.9c0.1,0.7,0.1,1.3,0.2,2   c1.6,15.4,3.3,30.9,4.8,46.3c1.6,15.4,3.2,30.9,4.8,46.3c0.5,4.6,2.3,8.2,5.5,10.8c-1.5,0-2.9,0-4.4,0c-6.5,0-12.9,0-19.3,0   c-1.4,0-2.9,0-4.3,0c2.6-2.7,3.7-6.3,3.3-10.8c-0.5-5-1-10-1.4-14.9c-0.4-5-1-10-1.4-14.9C505.9,500.8,501.1,494.4,496.3,487.9   L496.3,487.9z M116.2,476.9c0.5-5.4,1-10.8,1.4-16.2c0.5-5.4,1-10.8,1.4-16.2c0.1-0.7,0.2-1.3,0.2-2c0.4-4.7-0.7-8.3-3.2-10.9   c1.3,0,2.7,0,4.1,0c7.5,0,15.1,0,22.6,0c-3,2.7-4.7,6.3-5.1,10.9c-0.1,0.7-0.1,1.3-0.2,2c-1.3,15.4-2.5,30.9-3.7,46.3   c-1.2,15.4-2.5,30.9-3.8,46.3c-0.4,4.6,0.9,8.2,3.7,10.8c-1.5,0-3,0-4.5,0c-6.5,0-12.9,0-19.3,0c-1.4,0-2.9,0-4.3,0   c3.1-2.6,4.9-6.2,5.3-10.8c0.7-7.9,1.4-15.8,2.1-23.7c0.7-7.9,1.4-15.8,2.1-23.7c-4.2,0-8.3,0-12.5,0c-0.7,7.9-1.5,15.8-2.2,23.7   c-0.8,7.9-1.5,15.8-2.3,23.7c-0.4,4.6,0.7,8.2,3.3,10.8c-1.4,0-2.9,0-4.3,0c-6.5,0-12.9,0-19.3,0c-1.4,0-2.9,0-4.3,0   c3.2-2.7,5-6.3,5.4-10.8c1.6-15.4,3.3-30.9,4.8-46.3c1.6-15.4,3.2-30.9,4.8-46.3c0.1-0.7,0.2-1.3,0.2-2c0.5-4.6-0.6-8.2-3-10.9   c1.3,0,2.7,0,4.1,0c7.4,0,14.9,0,22.4,0c-3,2.7-4.6,6.3-5.1,10.9c-0.1,0.7-0.1,1.3-0.2,2c-0.5,5.4-1,10.8-1.5,16.2   c-0.5,5.4-1,10.8-1.5,16.2C107.9,476.9,112,476.9,116.2,476.9L116.2,476.9z M288.5,431.7c0,3.6,0,7.1-0.1,10.7c-2.7,4-5.5,8-8.2,12   c0-4,0.1-8,0.1-12c-1.1,0-2.2,0-3.3,0c0-3.5,0.1-7.1,0.1-10.7C280.9,431.7,284.7,431.7,288.5,431.7L288.5,431.7z M467.8,431.7   c-6.5,0-12.9,0-19.3,0c2.1,2,3.3,4.6,3.6,7.9c0,0.5,0,1,0.1,1.5c0.8,11.2,1.6,22.5,2.4,33.7c0.8,11.2,1.6,22.5,2.4,33.7   c0.2,3.3-0.6,6-2.6,7.9c1,0,2,0,3.1,0c4.7,0,9.3,0,13.9,0c1,0,2,0,3.1,0c-2.2-2-3.5-4.6-3.7-7.9c-0.9-11.2-1.7-22.5-2.6-33.7   c-0.9-11.2-1.7-22.5-2.6-33.7c0-0.5-0.1-1-0.1-1.5C465.1,436.3,465.9,433.6,467.8,431.7L467.8,431.7z M443.6,441   c0.6,7.9,1.1,15.7,1.6,23.6c-7.2,5.2-14.4,10.5-21.7,15.7c0.5,9.4,1.1,18.8,1.6,28.2c0.2,3.3,1.4,6,3.5,7.9c-1.1,0-2.1,0-3.1,0   c-4.6,0-9.3,0-13.9,0c-1.1,0-2.1,0-3.1,0c2-2,2.9-4.6,2.7-7.9c-0.5-10.2-1-20.4-1.5-30.5c-0.5-10.2-1-20.4-1.5-30.6   c2.9-2.1,5.8-4.2,8.6-6.3c-3,0-5.9,0-8.9,0c0-0.5-0.1-1-0.1-1.5c-0.2-3.3-1.3-6-3.4-7.9c8.4,0,16.7,0,25.2,0   C434.3,434.8,438.9,437.9,443.6,441L443.6,441z M431.7,465.6c-0.5-8.2-1-16.4-1.5-24.5c-2.9,0-5.9,0-8.9,0   c0.2,5.1,0.5,10.3,0.8,15.4c0.3,5.1,0.6,10.2,0.9,15.4C425.9,469.7,428.8,467.6,431.7,465.6L431.7,465.6z M387.5,506.9   c-0.2-5.1-0.5-10.2-0.7-15.4c-0.2-5.1-0.4-10.3-0.6-15.4c-7.4,5.2-14.9,10.5-22.4,15.7c-0.2-7.4-0.4-14.8-0.6-22.2   c-0.2-7.4-0.4-14.8-0.6-22.2c2.9-2.1,5.8-4.2,8.7-6.3c-3,0-6,0-8.9,0c0-0.5,0-1,0-1.5c-0.1-3.4-1.1-6-3.2-7.9c13.9,0,27.7,0,41.6,0   c-1.9,2-2.8,4.6-2.6,7.9c0,0.5,0,1,0,1.5c0.2,3.9,0.4,7.8,0.6,11.7c-4.4,3.1-8.7,6.2-13.2,9.3c-0.2-4.9-0.3-9.8-0.6-14.7   c2.9-2.1,5.8-4.2,8.6-6.3c-6,0-11.9,0-17.9,0c0.2,5.5,0.5,11,0.7,16.5c0.2,5.5,0.4,11,0.6,16.5c7.3-5.2,14.6-10.4,21.9-15.7   c0,0.5,0,1,0,1.6c0.4,7.8,0.7,15.7,1.1,23.5c0.3,7.8,0.7,15.7,1.1,23.5c-4.5,3.2-9,6.3-13.5,9.5c-7.7,0-15.5,0-23.3,0   c-1,0-2.1,0-3.1,0c2.1-1.9,3-4.5,2.9-7.9c-0.1-3.6-0.2-7.3-0.3-10.9c4.5-3.2,9-6.3,13.4-9.5c0,0.3,0,0.7,0,1   c0.1,3.9,0.2,7.8,0.4,11.7c-3,2.1-6,4.1-9,6.2C375.1,506.9,381.3,506.9,387.5,506.9L387.5,506.9z M310.9,472.6c0,6,0,12,0,17.9   c0,6,0,11.9,0,17.9c0,3.3,1.1,6,3.3,7.9c-1.1,0-2.2,0-3.3,0c-4.6,0-9.3,0-13.9,0c-1.1,0-2.1,0-3.1,0c2-1.9,3.1-4.5,3.1-7.9   c0-11.2,0.1-22.5,0.1-33.7c0-11.2,0.1-22.5,0.1-33.7c0-0.5,0-1,0-1.5c0-3.4-0.9-6-2.9-7.9c1,0,2,0,3,0c5.5,0,11,0,16.5,0   c-2,2-3.1,4.6-3.1,7.9c0,0.5,0,1,0,1.5c0,6.3,0,12.6,0,18.8c3.1,4.7,6.1,9.4,9.2,14.1c0-5.5-0.1-11-0.1-16.5c0-5.5-0.1-11-0.1-16.5   c0-0.5,0-1,0-1.5c0-3.3-1-6-3-7.9c1,0,2,0,3,0c5.4,0,10.9,0,16.4,0c-2,2-2.9,4.6-2.9,7.9c0,0.5,0,1,0,1.5   c0.2,11.2,0.3,22.5,0.5,33.7c0.2,11.2,0.3,22.5,0.5,33.7c0.1,3.3,1.1,6,3.2,7.9c-1.1,0-2.1,0-3.1,0c-4.6,0-9.3,0-13.9,0   c-1,0-2.1,0-3.1,0c2.1-2,3.1-4.6,3.1-7.9c-0.1-7.2-0.1-14.5-0.1-21.7C317,482,313.9,477.3,310.9,472.6L310.9,472.6z M268.3,441   c-0.2,11-0.4,22-0.6,32.9c-0.2,11-0.4,22-0.6,32.9c-5.7,3.2-11.5,6.3-17.2,9.5c-7.8,0-15.5,0-23.3,0c2.2-1.9,3.3-4.5,3.4-7.9   c0.4-10.2,0.7-20.4,1.1-30.5c0.3-10.2,0.7-20.4,1.1-30.6c3.1-2.1,6.1-4.2,9.2-6.3c-3,0-6,0-9,0c0-0.5,0-1,0-1.5   c0.1-3.4-0.7-6-2.7-7.9c8.4,0,16.8,0,25.3,0C259.6,434.8,263.9,437.9,268.3,441L268.3,441z M253.4,506.9c0.2-11,0.5-22,0.7-32.9   c0.3-11,0.6-22,0.8-32.9c-3,0-6,0-9,0c-0.3,9.9-0.6,19.9-0.9,29.8c-0.3,9.9-0.6,19.8-0.8,29.8c-3.1,2.1-6.2,4.2-9.3,6.3   C241,506.9,247.2,506.9,253.4,506.9L253.4,506.9z M188.3,441.2c0-0.5,0-1,0-1.6c0.2-3.3-0.7-5.9-2.5-7.8c1,0,2,0,3,0   c5.4,0,10.9,0,16.3,0c-2.1,1.9-3.2,4.5-3.4,7.8c0,0.5,0,1,0,1.6c-0.5,9.9-1,19.9-1.5,29.8c-0.5,9.9-1,19.8-1.5,29.8   c-3.2,2.1-6.4,4.2-9.6,6.3c6.1,0,12.3,0,18.5,0c0.3-6.3,0.5-12.5,0.9-18.8c4.7-3.1,9.3-6.2,14-9.4c-0.3,7.3-0.6,14.6-0.9,21.9   c-3.1,2.1-6.3,4.2-9.4,6.3c3.1,0,6.1,0,9.2,0c0,0.5,0,1,0,1.5c-0.1,3.5,0.8,6.1,2.9,7.9c-0.6,0-1.2,0-1.7,0c-12.9,0-25.7,0-38.5,0   c-1.1,0-2.1,0-3.1,0c2.1-1.9,3.4-4.5,3.5-7.9c0.6-11.2,1.2-22.4,1.9-33.6C187,463.6,187.6,452.4,188.3,441.2L188.3,441.2z    M181.8,441.2c-4.3-3.1-8.5-6.2-12.8-9.3c-3,0-6,0-8.9,0c-4.7,3.1-9.3,6.2-14,9.3c-0.8,11-1.7,22-2.6,32.9c-0.8,11-1.6,22-2.5,32.9   c4.4,3.1,8.7,6.2,13.2,9.4c3.1,0,6.2,0,9.3,0c4.8-3.1,9.6-6.2,14.4-9.4c0.7-11,1.3-22,2-32.9C180.4,463.1,181.1,452.1,181.8,441.2   L181.8,441.2z M164,507c-3.1,0-6.2,0-9.3,0c0.1-2.1,0.3-4.2,0.4-6.3c0.7-9.9,1.4-19.8,2.1-29.8c0.7-9.9,1.4-19.9,2.1-29.8   c3,0,6,0,9,0c-0.7,11-1.5,22-2.2,32.9C165.5,485.1,164.8,496,164,507z" />	<path class="st2" d="M89,474.2l-0.7,6.6H131l0.5-6.6h-11.4c-0.1,1-0.2,2-0.3,3.1c-0.2,1.9-1.7,3.3-3.6,3.3c-4.1,0-8.3,0-12.4,0   c-1,0-2-0.4-2.7-1.2c-0.7-0.8-1-1.8-0.9-2.8c0.1-0.8,0.2-1.6,0.2-2.3H89L89,474.2z M147.1,474.2l0,0.2c-0.2,2.2-0.3,4.3-0.5,6.5   h6.4l0.5-6.6H147.1L147.1,474.2z M169.8,474.2l-0.4,6.6h6.4c0.1-2.2,0.3-4.4,0.4-6.6H169.8L169.8,474.2z M190,474.2l-0.4,6.6h6.4   l0.3-6.6H190L190,474.2z M235,474.2l-0.2,6.6h6.4c0.1-2.2,0.1-4.4,0.2-6.6H235L235,474.2z M257.7,474.2l-0.2,6.6h6.4l0.1-6.6H257.7   L257.7,474.2z M300.8,474.2l0,6.6h6.4c0-2.2,0-4.4,0-6.6H300.8L300.8,474.2z M318.1,477c0.8,1.3,1.7,2.5,2.5,3.8h9.5l-0.1-6.6h-6.4   c-0.1,1.5-1.1,2.8-2.6,3.2C320,477.7,318.9,477.6,318.1,477L318.1,477z M367,474.2c0.1,2.2,0.1,4.4,0.2,6.6h6.1   c1.6-1.1,3.2-2.2,4.8-3.4c-0.8,0.2-1.7,0.1-2.5-0.2c-1.2-0.6-1.9-1.7-2-3H367L367,474.2z M389.3,474.2c0.3,0.5,0.5,1.2,0.6,1.8   l0.2,4.8h6.4l-0.3-6.6H389.3L389.3,474.2z M413.2,474.2l0.3,6.6h6.4l0-0.3c-0.1-1.3,0.5-2.4,1.5-3.1l3.3-2.4   c-1,0.5-2.2,0.6-3.2,0.1c-0.4-0.2-0.8-0.5-1.1-0.8H413.2L413.2,474.2z M458,474.2l0.5,6.6h6.4l-0.5-6.6H458L458,474.2z M480,474.2   l0.5,6.6h17.4c-1.6-2.2-3.3-4.4-4.9-6.6H480L480,474.2z M511.3,474.2c0.2,2.2,0.4,4.4,0.6,6.6h11.5l-0.7-6.6H511.3L511.3,474.2z    M87.2,491.2c-1.6,15.4-3.3,30.8-4.8,46.3c-0.2,2.4-0.8,4.7-1.8,6.8c4.8,0,9.7,0,14.5,0c-0.7-2.4-0.9-5-0.7-7.6   c0.7-7.9,1.5-15.8,2.3-23.7c0.7-7.3,1.4-14.6,2.1-21.8H87.2L87.2,491.2z M127.3,544.3c-0.8-2.4-1-5-0.8-7.5   c1.2-15.2,2.5-30.4,3.7-45.6h-11.6c-0.7,7.5-1.4,15-2,22.5c-0.7,7.9-1.4,15.8-2.1,23.7c-0.2,2.4-0.8,4.7-1.7,6.9   C117.6,544.3,122.4,544.3,127.3,544.3L127.3,544.3z M145.8,491.2c-0.3,4.7-0.7,9.3-1,14c3.5,2.5,7,5,10.5,7.5c2.4,0,4.7,0,7.1,0   c4-2.6,8-5.2,12-7.8l0.8-13.7h-6.5c-0.3,5.3-0.7,10.7-1,16c-0.1,1.9-1.7,3.4-3.6,3.4c-3.1,0-6.2,0-9.3,0c-1,0-1.9-0.4-2.6-1.1   c-0.7-0.7-1-1.7-1-2.7c0.1-2.1,0.3-4.3,0.4-6.4l0.6-9.2H145.8L145.8,491.2z M218.2,512.7c-0.2-0.7-0.3-1.4-0.3-2.1   c-1.9,0-3.7,0-5.6,0c-0.9,0-1.7-0.3-2.3-0.8c-0.6,0.5-1.4,0.8-2.3,0.8c-6.2,0-12.3,0-18.5,0c-0.4,0-0.8-0.1-1.2-0.2   c-0.1,0.8-0.3,1.6-0.5,2.3C197.7,512.7,207.9,512.7,218.2,512.7L218.2,512.7z M211.4,503.2c2.2-1.5,4.5-3,6.7-4.5   c0.1-2.5,0.2-5,0.3-7.5h-6.5C211.7,495.2,211.5,499.2,211.4,503.2L211.4,503.2z M188.4,503.1c2.2-1.5,4.5-3,6.7-4.4l0.4-7.4h-6.5   C188.8,495.2,188.6,499.2,188.4,503.1L188.4,503.1z M234.4,491.2c-0.1,4-0.3,7.9-0.4,11.9c2.2-1.5,4.4-3,6.7-4.5l0.2-7.4H234.4   L234.4,491.2z M233.6,510.3c-0.1,0.8-0.3,1.6-0.5,2.4c5.3,0,10.6,0,15.9,0c1.3-0.7,2.7-1.5,4-2.2c-6.1,0-12.2,0-18.3,0   C234.4,510.5,234,510.4,233.6,510.3L233.6,510.3z M256.6,508.6c2.3-1.3,4.7-2.6,7-3.9l0.2-13.5h-6.5c-0.1,5.2-0.2,10.5-0.3,15.7   C257,507.6,256.8,508.1,256.6,508.6L256.6,508.6z M307.9,512.7c-0.4-1.4-0.6-2.8-0.6-4.3c0-5.7,0-11.5,0-17.2h-6.5   c0,5.7,0,11.5-0.1,17.2c0,1.4-0.2,2.9-0.5,4.3C302.7,512.7,305.3,512.7,307.9,512.7L307.9,512.7z M323.8,491.2   c0,5.7,0.1,11.5,0.1,17.2c0,1.5-0.1,2.9-0.5,4.3c2.6,0,5.1,0,7.7,0c-0.4-1.4-0.5-2.8-0.6-4.2c-0.1-5.8-0.2-11.5-0.2-17.3H323.8   L323.8,491.2z M390.5,491.2l0,0.2c0.2,5.1,0.4,10.2,0.6,15.3c0,1-0.3,1.9-1,2.7c-0.7,0.7-1.6,1.1-2.6,1.1c-6.2,0-12.4,0-18.6,0   c-0.3,0-0.7,0-1-0.1c-0.1,0.8-0.2,1.6-0.4,2.4c6.4,0,12.7,0,19.1,0c3.6-2.5,7.3-5.1,10.9-7.7c-0.2-4.6-0.4-9.2-0.6-13.8H390.5   L390.5,491.2z M367.8,503.3c0-1.3-0.1-2.6-0.1-3.9c2.1-1.5,4.3-3,6.4-4.5c0,1.3,0.1,2.6,0.1,3.9C372.1,500.3,370,501.8,367.8,503.3   L367.8,503.3z M414,491.2c0.3,5.7,0.5,11.4,0.8,17c0.1,1.5,0,3-0.4,4.5c2.6,0,5.1,0,7.7,0c-0.4-1.3-0.6-2.7-0.7-4.1   c-0.3-5.8-0.7-11.6-1-17.4H414L414,491.2z M459.2,491.2l1.2,17c0.1,1.5,0,3.1-0.3,4.5c2.6,0,5.1,0,7.7,0c-0.4-1.3-0.7-2.6-0.8-4   c-0.4-5.8-0.9-11.7-1.3-17.5H459.2L459.2,491.2z M481.4,491.2c1.2,15.2,2.4,30.4,3.7,45.6c0.2,2.5,0,5.1-0.7,7.5   c4.8,0,9.7,0,14.5,0c-1-2.2-1.6-4.5-1.8-6.9c-0.7-8.2-1.5-16.4-2.2-24.6c-0.6-7.2-1.3-14.4-1.9-21.6H481.4L481.4,491.2z    M503.3,491.2c3.5,4.6,6.9,9.2,10.4,13.8c0.4,0.6,0.7,1.2,0.7,1.9c0.5,5,1,10,1.4,14.9c0.4,5,0.9,9.9,1.4,14.9   c0.3,2.6,0.1,5.1-0.6,7.6c4.8,0,9.7,0,14.5,0c-1-2.1-1.6-4.5-1.8-6.8c-1.6-15.4-3.2-30.8-4.8-46.3h-12.1c-0.4,0.8-1.1,1.5-2,1.9   c-1.5,0.6-3.2,0.1-4.2-1.2l-0.5-0.7H503.3z" />	<path class="st0" d="M351.3,440.2c0-2.1-0.1-4.2-0.1-6.3c-2.3,0-4.7,0-7,0c0,2.1,0.1,4.2,0.1,6.3c0.4,0,0.8,0,1.2,0   c0.1,0,0.2,0,0.2,0H351.3L351.3,440.2z M91,440.2h14.2c0.4-2.3,1.2-4.4,2.3-6.3c-5.9,0-11.9,0-17.8,0c0,0-0.1,0-0.1,0   C90.6,435.8,91,438,91,440.2L91,440.2z M121.6,440.2h14.2c0.4-2.3,1.2-4.4,2.3-6.3c-6,0-11.9,0-17.9,0   C121.1,435.8,121.5,438,121.6,440.2L121.6,440.2z M151.5,440.2h6c0.4-0.7,1.1-1.2,2-1.2c3,0,6,0,9,0c0.6,0,1.2,0.2,1.6,0.7   c0.1,0.2,0.3,0.3,0.4,0.5h6.3c-2.8-2.1-5.6-4.1-8.4-6.2c-2.5,0-5,0-7.5,0C157.6,436.1,154.5,438.1,151.5,440.2L151.5,440.2z    M190.5,440.2h9c0-0.2,0-0.5,0-0.7c0.1-1.9,0.5-3.8,1.3-5.5c-3.7,0-7.4,0-11,0c0.7,1.8,0.9,3.7,0.7,5.7L190.5,440.2L190.5,440.2z    M243.5,440.2h0.4c0.3-0.8,1.1-1.3,2-1.3c3,0,6,0,9,0c0.6,0,1.1,0.2,1.6,0.7c0.2,0.2,0.3,0.4,0.4,0.7h6.3c-3-2.1-5.9-4.2-8.9-6.3   c-6.9,0-13.7,0-20.6,0c0.6,1.6,0.9,3.2,0.9,5c2.3,0,4.5,0,6.8,0C242.4,438.8,243.2,439.4,243.5,440.2L243.5,440.2z M280.6,440.2   h5.7c0-2.1,0-4.2,0.1-6.3c-2.3,0-4.7,0-7,0c0,2.1-0.1,4.2-0.1,6.3c0.4,0,0.7,0,1.1,0C280.4,440.1,280.5,440.2,280.6,440.2   L280.6,440.2z M299.5,440.2h9v-0.6c0-2,0.3-4,1.1-5.7c-3.7,0-7.4,0-11.2,0c0.7,1.8,1,3.7,1,5.7L299.5,440.2L299.5,440.2z    M321.9,440.2h9l0-0.5c0-2,0.3-4,1-5.7c-3.7,0-7.4,0-11.2,0c0.7,1.8,1.1,3.7,1.1,5.7C321.9,439.8,321.9,440,321.9,440.2   L321.9,440.2z M373.5,440.2h0.4c0.1-0.2,0.2-0.4,0.4-0.6c0.4-0.4,1-0.7,1.6-0.7c6,0,11.9,0,17.9,0c0.9,0,1.7,0.5,2,1.3h0.3l0-0.5   c-0.1-2,0.2-4,0.9-5.8c-11.1,0-22.3,0-33.4,0c0.7,1.5,1,3.2,1.1,5c2.3,0,4.5,0,6.8,0C372.3,438.8,373.1,439.4,373.5,440.2   L373.5,440.2z M418.8,440.2h0.5c0.1-0.2,0.2-0.4,0.4-0.6c0.4-0.4,1-0.7,1.6-0.7c3,0,5.9,0,8.9,0c0.9,0,1.7,0.5,2,1.3h6.1   c-3.1-2.1-6.3-4.2-9.4-6.3c-6.7,0-13.5,0-20.2,0c0.7,1.5,1.1,3.2,1.3,5c2.3,0,4.5,0,6.8,0C417.7,438.8,418.5,439.4,418.8,440.2   L418.8,440.2z M454.2,440.2h9l0-0.4c-0.2-2.1,0-4.1,0.7-5.9c-3.7,0-7.4,0-11.1,0c0.8,1.7,1.3,3.6,1.4,5.6   C454.2,439.7,454.2,439.9,454.2,440.2L454.2,440.2z M475.7,440.2H490c0.1-2.2,0.5-4.3,1.4-6.3c-6,0-11.9,0-17.9,0   C474.6,435.8,475.3,437.9,475.7,440.2L475.7,440.2z M506.5,440.2h14.2c0-2.2,0.4-4.3,1.3-6.3c-6,0-11.9,0-17.9,0   C505.3,435.8,506,437.9,506.5,440.2z" />	<path class="st0" d="M502.7,552.3c0.9,1.6,2.1,2.9,3.5,4.1c-1.5,0-3,0-4.5,0c-6.5,0-12.9,0-19.3,0c-1.4,0-2.9,0-4.3,0   c1.2-1.2,2.1-2.5,2.7-4.1h1.6c6.4,0,12.9,0,19.3,0H502.7L502.7,552.3z M534.9,552.3c0.9,1.6,2,2.9,3.5,4.1c-1.5,0-2.9,0-4.4,0   c-6.5,0-12.9,0-19.3,0c-1.4,0-2.9,0-4.3,0c1.2-1.2,2-2.6,2.6-4.1h1.7c6.4,0,12.9,0,19.3,0H534.9L534.9,552.3z M130.9,552.3   c0.6,1.6,1.6,2.9,2.8,4.1c-1.5,0-3,0-4.5,0c-6.5,0-12.9,0-19.3,0c-1.4,0-2.9,0-4.3,0c1.4-1.2,2.5-2.5,3.4-4.1h0.9   c6.4,0,12.9,0,19.3,0H130.9L130.9,552.3z M98.8,552.3c0.6,1.6,1.4,2.9,2.6,4.1c-1.4,0-2.9,0-4.3,0c-6.5,0-12.9,0-19.3,0   c-1.4,0-2.9,0-4.3,0c1.4-1.2,2.5-2.6,3.4-4.1h0.9c6.4,0,12.9,0,19.3,0H98.8L98.8,552.3z M471.5,520.7c0.6,1.6,1.6,3,2.9,4.1   c-1.1,0-2.1,0-3.1,0c-4.7,0-9.3,0-13.9,0c-1.1,0-2.1,0-3.1,0c1.1-1.1,1.9-2.5,2.3-4.1h0.8c4.6,0,9.3,0,13.9,0H471.5L471.5,520.7z    M425.9,520.7c0.6,1.6,1.5,3,2.8,4.1c-1.1,0-2.1,0-3.1,0c-4.6,0-9.3,0-13.9,0c-1.1,0-2.1,0-3.1,0c1.1-1.1,1.9-2.5,2.3-4.1h0.8   c4.6,0,9.2,0,13.9,0H425.9L425.9,520.7z M401.2,512.3l0.1,3c-4.5,3.2-9,6.3-13.5,9.5c-7.7,0-15.5,0-23.3,0c-1,0-2.1,0-3.1,0   c1.2-1.1,2.1-2.5,2.5-4.1h0.6c7.8,0,15.5,0,23.3,0c0.9,0,1.7-0.3,2.5-0.8C393.9,517.4,397.6,514.9,401.2,512.3L401.2,512.3z    M311.5,520.7c0.5,1.6,1.4,3,2.7,4.1c-1.1,0-2.2,0-3.3,0c-4.6,0-9.3,0-13.9,0c-1.1,0-2.1,0-3.1,0c1.2-1.1,2.1-2.5,2.6-4.1h0.5   c4.6,0,9.2,0,13.9,0H311.5L311.5,520.7z M334.7,520.7c0.5,1.6,1.4,3,2.6,4.1c-1.1,0-2.1,0-3.1,0c-4.6,0-9.3,0-13.9,0   c-1,0-2.1,0-3.1,0c1.2-1.1,2.1-2.5,2.6-4.1h0.6c4.6,0,9.3,0,13.9,0H334.7L334.7,520.7z M267.2,511.8l-0.1,3.5   c-5.7,3.2-11.5,6.3-17.2,9.5c-7.8,0-15.5,0-23.3,0c1.3-1.1,2.2-2.5,2.7-4.1H250c0.8,0,1.4-0.2,2.1-0.5   C257.2,517.4,262.2,514.6,267.2,511.8L267.2,511.8z M221.8,520.7c0.4,1.7,1.3,3,2.5,4.1c-0.6,0-1.2,0-1.7,0c-12.9,0-25.7,0-38.5,0   c-1.1,0-2.1,0-3.1,0c1.3-1.1,2.2-2.5,2.8-4.1h0.3H221.8L221.8,520.7z M178.1,512.1l-0.1,1.1c-0.9,0.8-1.4,2-1.4,3.1   c-4.4,2.9-8.7,5.7-13.2,8.5c-3.1,0-6.2,0-9.3,0c-4.4-3.1-8.8-6.2-13.2-9.4l0.2-3c3.5,2.5,6.9,4.9,10.4,7.4c0.8,0.5,1.6,0.8,2.5,0.8   c3.1,0,6.2,0,9.3,0c0.9,0,1.6-0.2,2.4-0.7C169.9,517.4,174,514.8,178.1,512.1z" /></g></svg>